<?xml version="1.0" encoding="utf-8"?>
<!-- Uploaded to: SVG Repo, www.svgrepo.com, Generator: SVG Repo Mixer Tools -->
<svg width="800px" height="800px" viewBox="0 0 24 24" fill="none" xmlns="http://www.w3.org/2000/svg">
<g id="style=stroke">
<g id="key">
<path id="vector (Stroke)" fill-rule="evenodd" clip-rule="evenodd" d="M4.5108 14.9986C4.77976 14.7296 5.21583 14.7296 5.48479 14.9986L7.23423 16.748C7.50319 17.017 7.50319 17.4531 7.23423 17.722C6.96528 17.991 6.52921 17.991 6.26025 17.722L4.5108 15.9726C4.24184 15.7036 4.24184 15.2676 4.5108 14.9986Z" fill="#000000"/>
<path id="vector (Stroke)_2" fill-rule="evenodd" clip-rule="evenodd" d="M6.69757 12.8121C6.96653 12.5431 7.40259 12.5431 7.67155 12.8121L9.421 14.5615C9.68996 14.8305 9.68996 15.2665 9.421 15.5355C9.15204 15.8045 8.71598 15.8045 8.44702 15.5355L6.69757 13.7861C6.42861 13.5171 6.42861 13.081 6.69757 12.8121Z" fill="#000000"/>
<path id="vector (Stroke)_3" fill-rule="evenodd" clip-rule="evenodd" d="M18.7521 5.23197C16.4313 2.91894 12.6768 2.92012 10.3657 5.23115L10.3646 5.23233C8.7529 6.83616 8.26413 9.14722 8.89253 11.1895C8.96755 11.4333 8.90165 11.6987 8.72126 11.8791L3.74002 16.8603C3.68678 16.9164 3.61118 17.0366 3.5562 17.2015C3.50017 17.3696 3.49059 17.509 3.50123 17.5819L3.50203 17.5874L3.76359 19.4882C3.78699 19.6341 3.87514 19.81 4.02621 19.9618C4.17854 20.1148 4.35009 20.1986 4.48819 20.218C4.48845 20.2181 4.48792 20.218 4.48819 20.218L6.40052 20.4812C6.48124 20.493 6.62398 20.4837 6.7864 20.431C6.95004 20.378 7.0617 20.3044 7.11047 20.2542L7.11785 20.2466L12.1126 15.2608C12.2938 15.0799 12.5604 15.0144 12.8047 15.0909C14.8334 15.7253 17.1453 15.2318 18.7605 13.625C21.0714 11.3136 21.0712 7.54324 18.7521 5.23197ZM9.39229 4.25664C12.2422 1.40731 16.8672 1.40867 19.7245 4.25634C22.5836 7.10579 22.5836 11.7499 19.734 14.5994L19.7329 14.6006C17.8514 16.4729 15.2002 17.1184 12.8009 16.5199L8.09426 21.2183C7.84612 21.4719 7.51802 21.6419 7.21104 21.7414C6.9021 21.8415 6.54317 21.8934 6.20497 21.8447C6.20389 21.8445 6.20282 21.8444 6.20174 21.8442L4.30034 21.5826C3.80877 21.5143 3.37189 21.2569 3.04998 20.9335C2.7279 20.6099 2.47514 20.1754 2.40133 19.6922L2.39979 19.6821L2.13823 17.7807C2.13807 17.7797 2.13792 17.7786 2.13777 17.7776C2.08799 17.4316 2.14833 17.0693 2.24946 16.7659C2.35105 16.4612 2.51883 16.1408 2.75414 15.8983L2.7613 15.8909L7.46375 11.1886C6.87285 8.78544 7.50743 6.13282 9.39229 4.25664Z" fill="#000000"/>
<path id="vector (Stroke)_4" fill-rule="evenodd" clip-rule="evenodd" d="M14.6197 8.30174C14.0338 8.30174 13.5589 8.77665 13.5589 9.36248C13.5589 9.94831 14.0338 10.4232 14.6197 10.4232C15.2055 10.4232 15.6804 9.94831 15.6804 9.36248C15.6804 8.77665 15.2055 8.30174 14.6197 8.30174ZM12.1815 9.36248C12.1815 8.01592 13.2731 6.92432 14.6197 6.92432C15.9662 6.92432 17.0578 8.01592 17.0578 9.36248C17.0578 10.709 15.9662 11.8006 14.6197 11.8006C13.2731 11.8006 12.1815 10.709 12.1815 9.36248Z" fill="#000000"/>
</g>
</g>
</svg>